PathFileType	4	(X/Y/Z)	Patient4_TMGait_0pt5_02_right_41.trc.trc
DataRate	CameraRate	NumFrames	NumMarkers	Units	OrigDataRate	OrigDataStartFrame	OrigNumFrames
74.468085106383	74.468085106383	4	33	mm	74.468085106383	53	       141
Frame#	Time	Sacral			L.Shoulder			Chest			R.Shoulder			Neck			R.ASIS			L.ASIS			R.Thigh.Superior			R.Thigh.Lateral			R.Thigh.Inferior			R.Patella			L.Thigh.Superior			L.Thigh.Lateral			L.Thigh.Inferior			L.Patella			L.Shank.Superior			L.Shank.Lateral			L.Shank.Inferior			R.Shank.Superior			R.Shank.Lateral			R.Shank.Inferior			R.Heel			R.Midfoot.Superior			R.Midfoot.Lateral			R.Toe			L.Heel			L.Midfoot.Lateral			L.Midfoot.Superior			L.Toe			L.Elbow			L.Wrist			R.Elbow			R.Wrist			
		X1	Y1	Z1	X2	Y2	Z2	X3	Y3	Z3	X4	Y4	Z4	X5	Y5	Z5	X6	Y6	Z6	X7	Y7	Z7	X8	Y8	Z8	X9	Y9	Z9	X10	Y10	Z10	X11	Y11	Z11	X12	Y12	Z12	X13	Y13	Z13	X14	Y14	Z14	X15	Y15	Z15	X16	Y16	Z16	X17	Y17	Z17	X18	Y18	Z18	X19	Y19	Z19	X20	Y20	Z20	X21	Y21	Z21	X22	Y22	Z22	X23	Y23	Z23	X24	Y24	Z24	X25	Y25	Z25	X26	Y26	Z26	X27	Y27	Z27	X28	Y28	Z28	X29	Y29	Z29	X30	Y30	Z30	X31	Y31	Z31	X32	Y32	Z32	X33	Y33	Z33	

53	54.238285714286	682.106431200722	1022.113129633519	515.559033994763	874.422114953530	1441.382247839903	329.890559809046	980.365634346777	1362.037162126256	484.405587376038	911.047272347374	1437.975554177119	664.359055675644	885.662074945069	1499.945928756257	481.279799199394	910.781766858983	940.506928961761	617.831043359913	882.771487057146	968.326581625386	346.575399050401	940.645643200997	737.912397730895	585.538892410017	854.365969427078	634.224071119820	643.634686440922	926.206480345339	579.694292600584	559.569182389936	921.903729154702	491.779408319046	563.108792215490	960.883446240187	786.504356938535	374.660675852531	914.272349963741	661.177280634389	298.212688410039	1016.763357636670	596.626265769455	357.542348604214	1029.453112196245	507.492361024777	351.276598955037	967.533347741501	438.634839228286	345.874369385480	831.565790809942	383.349426707520	295.177173761972	829.395575526706	255.448792816260	353.940392872317	891.047930378109	405.101826616978	569.319038150917	816.427530972560	302.785926164372	627.759768780144	855.878087626282	208.111242818554	563.130185746019	715.511128849123	45.705003890721	528.045460550644	888.121363065965	97.430752467772	566.660943727593	797.973495293685	37.299053458858	603.244977012562	1006.411629147190	39.599597759937	596.023982382860	644.196730514177	173.075929175772	390.283932370306	706.785506303153	132.261809732992	311.393027867786	810.023099025829	152.652030866773	333.258581770292	899.891174342495	48.915462894002	308.733325150938	805.347748908840	1088.454889620721	224.968846776257	859.329910484087	832.680462422005	213.840359852216	956.613677749580	1097.022546600929	790.605647526485	1135.322078908897	907.275439133414	776.578876538311	
54	54.251714285714	680.378363471707	1023.013531985886	516.879669232346	873.132030246474	1441.164955420744	330.240532004767	979.906210737095	1361.613090229567	484.053877011489	912.295919431889	1438.215099362300	664.377057825233	885.566870703471	1499.928427041645	481.419367959679	908.944076833707	940.145831814261	618.004354104169	880.108557870283	968.909771849411	346.872301963750	936.440681150412	737.036678830054	584.782670629377	849.478565125605	634.305105372038	643.848878406989	919.733870348572	579.042984646683	559.158723217632	914.547570371393	491.560596085020	562.703573328109	959.495671950640	789.046400403962	375.292764868809	914.363128051020	663.233850448366	298.549211278338	1017.218307918299	599.814059563735	358.118105112183	1031.748950030450	511.901382019673	351.894064198613	973.202466667344	441.446637362834	346.040011929191	841.036936984488	379.098431590573	294.435806061004	845.782979383470	251.136083482225	352.946018433778	883.890794129598	404.959613003879	569.100113305275	809.496919958252	302.623861559584	627.858845007387	848.867797251770	207.997078408953	563.018083399648	708.609191965932	45.387692992079	528.074058295708	881.197805789665	97.363655407884	566.631196062218	791.089971183996	37.196041558953	603.341255490028	999.543025144970	39.715648253753	596.024772084776	665.797527695336	158.183701038527	388.195410910243	730.809606579072	121.708613318406	309.371916557518	832.387250073187	147.819765294214	331.825746428345	928.010649579055	50.091057340867	307.177930898875	797.252985641658	1089.257466917466	226.961473568798	836.637693587729	831.104948422534	216.196674963328	967.077917496119	1099.396599078677	790.786351412663	1154.927949629116	919.149313782536	774.449529686934	
55	54.265142857143	678.725049912789	1023.762750746652	518.087667935432	871.915323286023	1440.774149399419	330.444545627887	979.488757039384	1361.028469226017	483.584927211479	913.512459833391	1438.313594563893	664.236481643594	885.481220810611	1499.744453454787	481.406920049993	907.144964603775	939.648190785774	618.101087799938	877.577537580078	969.296211133889	347.073808225017	932.323503570030	736.091247434551	583.984600551517	844.739468872548	634.308699600479	644.051594690347	913.414321600413	578.348978964386	558.783032188104	907.383290018132	491.259981458174	562.370075768493	957.729809791216	790.887757423429	375.869668686395	913.634104863573	664.704623068520	298.855741759584	1016.505350068640	602.081287214766	358.893991186960	1032.744947396977	515.709610376391	352.745384438955	977.941402937995	443.896991866586	346.299806788016	850.493149197163	374.029399908620	293.536084386759	862.754820017311	246.418802606332	351.868950207408	876.875453125551	404.719688788912	568.899542571883	802.670300065518	302.381224246968	627.952660856636	841.888764878989	207.792647101921	562.896198736486	701.705390178906	45.027555282088	528.103072993239	874.242298752267	97.275646168121	566.574346875523	784.196372626910	37.079488778955	603.434641306054	992.668181012857	39.838424515788	596.009709011775	689.132116600979	142.258771352253	385.733848986947	756.632684002797	110.585572030438	307.143632343773	856.011528413241	142.828045218431	330.363123374202	957.563143183252	51.889481311433	305.883444512202	788.923743557971	1090.181353878330	228.618516158260	814.788073180989	830.647996039171	218.516467610693	976.687418007576	1101.801660294641	790.723000905058	1173.388902202732	931.820829580226	771.773182961512	
56	54.278571428571	677.156359078775	1024.343928901920	519.181926562224	870.773884350682	1440.231519301152	330.507942496024	979.106876302620	1360.291355466173	483.004165071854	914.673730317672	1438.250826028310	663.950306447301	885.406888371842	1499.397030118865	481.256013454349	905.410236106358	939.035838962505	618.117234496558	875.188178228958	969.458209231599	347.176426427424	928.374100390651	735.095563282936	583.185210830435	840.236850211819	634.225234630384	644.239917240243	907.373875030956	577.619558229604	558.444082386110	900.539427995853	490.867996503292	562.103655130738	955.588469893189	791.970794184141	376.385123897609	912.119359421636	665.557767887615	299.098742786680	1014.655831438152	603.387251041448	359.871410785023	1032.489899401183	518.869808442023	353.824786239066	981.729756346379	446.001964049098	346.656541012358	859.899604056647	368.382107450460	292.520430310393	880.090329807845	241.629451120819	350.793777997062	870.110763177917	404.374019654116	568.714536915489	796.030160976327	302.067736193879	628.038694928561	834.992823510109	207.500420883901	562.763025388782	694.806257225128	44.653505668324	528.135787664278	867.267748335012	97.170027471844	566.490384460389	777.300622332771	36.958397413344	603.524546669372	985.792823568277	39.963586669255	595.981231478676	713.952476980176	125.969054233162	383.058619646082	783.915492653023	99.452890715236	304.869497696004	880.538035666379	138.077195927459	328.994258703544	987.982766394819	54.597229803340	304.997752456535	780.456779447150	1091.248478192636	229.956612990985	793.965386933076	831.130569453020	220.823435169229	985.464319814245	1104.136450003636	790.414418796186	1190.610574535259	945.147496344871	768.577985560806	
